<?xml version="1.0" encoding="iso-8859-1"?>
<!-- Generator: Adobe Illustrator 22.1.0, SVG Export Plug-In . SVG Version: 6.00 Build 0)  -->
<svg version="1.1" id="Layer_1_1_" xmlns="http://www.w3.org/2000/svg" xmlns:xlink="http://www.w3.org/1999/xlink" x="0px" y="0px"
	 viewBox="0 0 48 48" style="enable-background:new 0 0 48 48;" xml:space="preserve">
<path style="fill:none;stroke:#000000;stroke-width:3;stroke-linecap:round;stroke-linejoin:round;stroke-miterlimit:10;" d="
	M21.9,32.197L16.5,33.5l1.302-5.401l8.752-8.751c1.131-1.131,2.966-1.131,4.097,0s1.131,2.966,0,4.098L21.9,32.197z"/>
<path style="fill:none;stroke:#000000;stroke-width:3;stroke-linejoin:round;stroke-miterlimit:10;" d="M30.329,8.5H35.5
	c1.657,0,3,1.343,3,3v27c0,1.657-1.343,3-3,3h-23c-1.657,0-3-1.343-3-3v-27c0-1.657,1.343-3,3-3h5.205"/>
<path style="fill:none;stroke:#000000;stroke-width:3;stroke-linecap:round;stroke-linejoin:round;stroke-miterlimit:10;" d="
	M27.5,4.5c-1.102,0-5.9,0-7,0c-1.657,0-3,1.343-3,3s1.343,3,3,3c1.1,0,5.898,0,7,0c1.657,0,3-1.343,3-3S29.157,4.5,27.5,4.5z"/>
</svg>